<svg width="82" height="85" viewBox="0 0 82 85" fill="none" xmlns="http://www.w3.org/2000/svg">
<path d="M41 0C18.45 0 0 19.125 0 42.5C0 65.875 18.45 85 41 85C63.55 85 82 65.875 82 42.5C82 19.125 63.55 0 41 0ZM24.19 58.4375C19.68 58.4375 15.99 54.6125 15.99 49.9375C15.99 45.2625 19.68 41.4375 24.19 41.4375C28.7 41.4375 32.39 45.2625 32.39 49.9375C32.39 54.6125 28.7 58.4375 24.19 58.4375ZM58.425 56.1C54.735 58.4375 49.815 56.95 47.56 53.125L36.08 32.5125C33.825 28.6875 35.26 23.5875 38.95 21.25C42.64 18.9125 47.56 20.4 49.815 24.225L61.295 44.8375C63.55 48.875 62.115 53.975 58.425 56.1Z" fill="#232E35"/>
<path d="M77 43.5C77.005 47.1127 76.4465 50.7047 75.344 54.15L74.936 55.3333C72.999 60.7588 69.7443 65.6341 65.456 69.5333C65.012 69.9475 64.568 70.338 64.1 70.7166C57.6256 76.0675 49.4476 79 41 79C32.5524 79 24.3745 76.0675 17.9 70.7166C17.432 70.338 16.988 69.9475 16.544 69.5333C12.2558 65.6341 9.00102 60.7588 7.06403 55.3333C6.9081 54.9428 6.77603 54.5523 6.65603 54.15C5.19562 49.5637 4.6935 44.733 5.18003 39.95C5.21603 39.5476 5.26397 39.1571 5.32403 38.7666C5.938 34.1757 7.47175 29.751 9.83603 25.75C10.304 24.9335 10.808 24.1525 11.348 23.3833H70.652C71.192 24.1525 71.696 24.9335 72.164 25.75C74.5282 29.751 76.062 34.1757 76.676 38.7666L76.82 39.95C76.9407 41.1295 77.0008 42.3144 77 43.5V43.5Z" fill="#E9EAF0"/>
<path d="M72.1639 25.75H9.83594C10.3039 24.9335 10.8079 24.1525 11.3479 23.3833H70.6519C71.1919 24.1525 71.6959 24.9335 72.1639 25.75Z" fill="#DFE0E6"/>
<path d="M5.32369 38.7666H76.6757L76.8197 39.9499H5.17969L5.32369 38.7666Z" fill="#C4CBD6"/>
<path d="M6.65625 54.1499H75.3442L74.9362 55.3332H7.06425L6.65625 54.1499Z" fill="#C4CBD6"/>
<path d="M65.4569 69.5334C65.0129 69.9476 64.5689 70.3381 64.1009 70.7168H17.9009C17.4329 70.3381 16.9889 69.9476 16.5449 69.5334H65.4569Z" fill="#C4CBD6"/>
<path d="M40.9997 8.00003C35.1611 7.99245 29.4087 9.3896 24.2416 12.0703C19.0744 14.751 14.6485 18.6343 11.3477 23.3834H70.6517C67.3508 18.6343 62.9249 14.751 57.7577 12.0703C52.5906 9.3896 46.8383 7.99245 40.9997 8.00003Z" fill="#FF4F5A"/>
</svg>
