<svg width="23" height="23" viewBox="0 0 23 23" fill="none" xmlns="http://www.w3.org/2000/svg">
<path d="M11.5 22.9998C17.8513 22.9998 23 17.851 23 11.4998C23 5.14848 17.8513 -0.000244141 11.5 -0.000244141C5.14873 -0.000244141 0 5.14848 0 11.4998C0 17.851 5.14873 22.9998 11.5 22.9998Z" fill="#0B394E"/>
<path d="M18.3711 12.4252V17.1664H15.6222V12.743C15.6222 11.6323 15.2254 10.8738 14.2301 10.8738C13.4706 10.8738 13.0194 11.3845 12.8201 11.8789C12.7478 12.0556 12.7291 12.301 12.7291 12.5489V17.1662H9.98007C9.98007 17.1662 10.017 9.67437 9.98007 8.89886H12.7293V10.0704C12.7238 10.0797 12.716 10.0887 12.7111 10.0975H12.7293V10.0704C13.0946 9.50833 13.7461 8.70473 15.2067 8.70473C17.0152 8.70473 18.3711 9.88634 18.3711 12.4252ZM7.10436 4.9137C6.16403 4.9137 5.54883 5.53095 5.54883 6.34192C5.54883 7.13567 6.14619 7.77076 7.06828 7.77076H7.08611C8.04489 7.77076 8.64102 7.13567 8.64102 6.34192C8.62278 5.53095 8.04489 4.9137 7.10436 4.9137ZM5.71221 17.1664H8.46022V8.89886H5.71221V17.1664Z" fill="#F1F2F2"/>
</svg>
