<svg width="21" height="19" viewBox="0 0 21 19" fill="none" xmlns="http://www.w3.org/2000/svg">
<path d="M10.4981 4.7501C11.3769 4.7501 12.2359 4.98582 12.9666 5.42746C13.6972 5.86911 14.2667 6.49683 14.603 7.23126C14.9393 7.96568 15.0273 8.77382 14.8558 9.55348C14.6844 10.3331 14.2612 11.0493 13.6399 11.6114C13.0185 12.1735 12.2268 12.5563 11.3649 12.7114C10.5031 12.8665 9.60973 12.7869 8.79786 12.4827C7.986 12.1785 7.29209 11.6633 6.80388 11.0023C6.31567 10.3414 6.05508 9.5643 6.05508 8.76936C6.05508 7.70339 6.52319 6.68107 7.35643 5.92731C8.18966 5.17355 9.31978 4.7501 10.4981 4.7501ZM19.9498 7.39916C19.8445 7.4125 19.7432 7.44475 19.6519 7.494C19.5606 7.54325 19.4811 7.60852 19.4181 7.68596C19.355 7.7634 19.3097 7.85146 19.2849 7.94496C19.26 8.03846 19.256 8.13551 19.2732 8.23042C19.3457 8.65051 19.3828 9.07497 19.3843 9.50014C19.3872 11.4672 18.5892 13.3663 17.1426 14.8348C16.4886 13.9863 15.646 13.2706 14.6686 12.7338C13.5463 13.7064 12.0523 14.2493 10.4981 14.2493C8.94403 14.2493 7.44995 13.7064 6.32773 12.7338C5.35032 13.2706 4.50767 13.9863 3.85375 14.8348C2.71755 13.6762 1.97552 12.2454 1.7169 10.7144C1.45828 9.18339 1.69408 7.61739 2.39595 6.20474C3.09782 4.79209 4.23587 3.59293 5.67323 2.75148C7.11059 1.91003 8.78607 1.46211 10.4981 1.4616C10.9682 1.46293 11.4374 1.49652 11.9018 1.56209C12.1111 1.58805 12.3234 1.53874 12.4931 1.42474C12.6628 1.31074 12.7763 1.14113 12.8093 0.952286C12.8424 0.763445 12.7923 0.570414 12.6698 0.414599C12.5473 0.258783 12.3622 0.152592 12.1542 0.118804C11.6067 0.0380591 11.0528 -0.00165938 10.4981 5.309e-05C8.38207 0.000717461 6.31556 0.57965 4.56944 1.66099C2.82332 2.74232 1.47904 4.27562 0.712755 6.05994C-0.0535274 7.84427 -0.206062 9.79638 0.275139 11.6605C0.75634 13.5246 1.84883 15.2137 3.40944 16.5065L3.54071 16.6161C5.46058 18.1521 7.93513 19 10.4981 19C13.0612 19 15.5357 18.1521 17.4556 16.6161L17.5869 16.5065C18.6634 15.6178 19.5231 14.5356 20.1108 13.3291C20.6985 12.1227 21.0013 10.8185 20.9999 9.50014C21.0018 8.99836 20.9579 8.49729 20.8687 8.00205C20.8527 7.90762 20.8162 7.817 20.7612 7.73545C20.7063 7.65389 20.6339 7.58301 20.5485 7.52693C20.463 7.47085 20.366 7.43068 20.2633 7.40874C20.1605 7.38681 20.0539 7.38355 19.9498 7.39916Z" fill="white"/>
</svg>
