<svg width="28" height="28" viewBox="0 0 28 28" fill="none" xmlns="http://www.w3.org/2000/svg">
<g clip-path="url(#clip0_107_957)">
<path d="M27.978 2.01589L24.478 24.7167C24.396 25.249 24.0747 25.7131 23.6047 25.9772C23.3398 26.1259 23.043 26.2013 22.7472 26.2013C22.5181 26.2013 22.2922 26.1567 22.0751 26.0661L15.3704 23.2716L12.589 27.4437C12.3757 27.8087 12.0202 28.0001 11.6374 28.0001C11.0085 28.0001 10.4999 27.4915 10.4999 26.8626V21.6028C10.4999 21.2137 10.6296 20.8355 10.8686 20.5287L22.7499 5.25011L6.6882 19.704L1.07671 17.3634C0.461368 17.1064 0.0443486 16.5267 0.00333303 15.8103C-0.0376826 15.0939 0.302419 14.5131 0.881614 14.1822L25.3816 0.231435C25.9662 -0.102651 26.6875 -0.0719162 27.241 0.308326C27.7944 0.688568 28.0819 1.35198 27.978 2.01589Z" fill="white"/>
</g>
<defs>
<clipPath id="clip0_107_957">
<rect width="28" height="28" fill="white"/>
</clipPath>
</defs>
</svg>
