<svg width="16" height="16" viewBox="0 0 16 16" fill="none" xmlns="http://www.w3.org/2000/svg">
<g clip-path="url(#clip0_168_1828)">
<path d="M0.5 8C0.5 6.51664 0.939867 5.0666 1.76398 3.83323C2.58809 2.59986 3.75943 1.63856 5.12987 1.07091C6.50032 0.50325 8.00832 0.354725 9.46318 0.644114C10.918 0.933503 12.2544 1.64781 13.3033 2.6967C14.3522 3.7456 15.0665 5.08197 15.3559 6.53683C15.6453 7.99168 15.4968 9.49968 14.9291 10.8701C14.3614 12.2406 13.4001 13.4119 12.1668 14.236C10.9334 15.0601 9.48336 15.5 8 15.5C6.01088 15.5 4.10322 14.7098 2.6967 13.3033C1.29018 11.8968 0.5 9.98913 0.5 8Z" fill="#FF4F5A"/>
<path d="M6.06532 10.7949L8.85532 7.99989L6.06532 5.20489C5.97219 5.11121 5.91992 4.98448 5.91992 4.85239C5.91992 4.7203 5.97219 4.59357 6.06532 4.49989C6.159 4.40676 6.28573 4.35449 6.41782 4.35449C6.54991 4.35449 6.67664 4.40676 6.77032 4.49989L9.95032 7.67989C10.0346 7.76507 10.0819 7.88006 10.0819 7.99989C10.0819 8.11972 10.0346 8.2347 9.95032 8.31989L6.77032 11.4999C6.67664 11.593 6.54991 11.6453 6.41782 11.6453C6.28573 11.6453 6.159 11.593 6.06532 11.4999C5.97219 11.4062 5.91992 11.2795 5.91992 11.1474C5.91992 11.0153 5.97219 10.8886 6.06532 10.7949Z" fill="white"/>
</g>
<defs>
<clipPath id="clip0_168_1828">
<rect width="16" height="16" fill="white"/>
</clipPath>
</defs>
</svg>
