<svg width="20" height="19" viewBox="0 0 20 19" fill="none" xmlns="http://www.w3.org/2000/svg">
<path d="M9.99824 4.7501C10.8351 4.7501 11.6533 4.98582 12.3491 5.42746C13.045 5.86911 13.5874 6.49683 13.9076 7.23126C14.2279 7.96568 14.3117 8.77382 14.1484 9.55348C13.9851 10.3331 13.5821 11.0493 12.9904 11.6114C12.3986 12.1735 11.6446 12.5563 10.8238 12.7114C10.0029 12.8665 9.15212 12.7869 8.37892 12.4827C7.60571 12.1785 6.94484 11.6633 6.47988 11.0023C6.01492 10.3414 5.76675 9.5643 5.76675 8.76936C5.76675 7.70339 6.21256 6.68107 7.00612 5.92731C7.79968 5.17355 8.87598 4.7501 9.99824 4.7501ZM14.6144 3.65393H16.1531V5.11548C16.1531 5.3093 16.2342 5.49517 16.3785 5.63222C16.5228 5.76927 16.7184 5.84626 16.9225 5.84626C17.1265 5.84626 17.3222 5.76927 17.4665 5.63222C17.6108 5.49517 17.6919 5.3093 17.6919 5.11548V3.65393H19.2306C19.4346 3.65393 19.6303 3.57694 19.7746 3.43989C19.9189 3.30285 19.9999 3.11697 19.9999 2.92316C19.9999 2.72934 19.9189 2.54347 19.7746 2.40642C19.6303 2.26937 19.4346 2.19238 19.2306 2.19238H17.6919V0.730829C17.6919 0.537015 17.6108 0.351139 17.4665 0.214092C17.3222 0.0770453 17.1265 5.309e-05 16.9225 5.309e-05C16.7184 5.309e-05 16.5228 0.0770453 16.3785 0.214092C16.2342 0.351139 16.1531 0.537015 16.1531 0.730829V2.19238H14.6144C14.4104 2.19238 14.2147 2.26937 14.0704 2.40642C13.9261 2.54347 13.845 2.72934 13.845 2.92316C13.845 3.11697 13.9261 3.30285 14.0704 3.43989C14.2147 3.57694 14.4104 3.65393 14.6144 3.65393ZM18.9998 7.39916C18.8995 7.4125 18.8031 7.44475 18.7161 7.494C18.6291 7.54325 18.5534 7.60852 18.4934 7.68596C18.4334 7.7634 18.3902 7.85146 18.3665 7.94496C18.3429 8.03846 18.3391 8.13551 18.3554 8.23042C18.4245 8.65051 18.4598 9.07496 18.4612 9.50014C18.464 11.4672 17.704 13.3663 16.3262 14.8348C15.7035 13.9863 14.9009 13.2706 13.9701 12.7338C12.9013 13.7064 11.4784 14.2493 9.99824 14.2493C8.51812 14.2493 7.09519 13.7064 6.02641 12.7338C5.09555 13.2706 4.29302 13.9863 3.67024 14.8348C2.58814 13.6762 1.88144 12.2454 1.63514 10.7144C1.38884 9.18339 1.61341 7.61739 2.28186 6.20474C2.95031 4.79209 4.03416 3.59293 5.40308 2.75148C6.77199 1.91003 8.36768 1.46211 9.99824 1.4616C10.4459 1.46293 10.8927 1.49652 11.335 1.56209C11.5344 1.58805 11.7366 1.53874 11.8982 1.42474C12.0598 1.31074 12.1679 1.14113 12.1994 0.952286C12.2308 0.763445 12.1831 0.570414 12.0665 0.414599C11.9498 0.258783 11.7735 0.152592 11.5754 0.118804C11.054 0.0380591 10.5265 -0.00165938 9.99824 5.309e-05C7.98292 0.000717461 6.01482 0.57965 4.35185 1.66099C2.68887 2.74232 1.40861 4.27562 0.678814 6.05994C-0.0509785 7.84427 -0.19625 9.79638 0.262037 11.6605C0.720324 13.5246 1.76079 15.2137 3.24709 16.5065L3.37211 16.6161C5.20055 18.1521 7.55726 19 9.99824 19C12.4392 19 14.7959 18.1521 16.6244 16.6161L16.7494 16.5065C17.7747 15.6178 18.5934 14.5356 19.1531 13.3291C19.7128 12.1227 20.0013 10.8185 19.9999 9.50014C20.0017 8.99836 19.9599 8.49729 19.8749 8.00205C19.8597 7.90762 19.8249 7.817 19.7726 7.73545C19.7202 7.65389 19.6514 7.58301 19.57 7.52693C19.4886 7.47085 19.3962 7.43068 19.2984 7.40874C19.2005 7.38681 19.099 7.38355 18.9998 7.39916Z" fill="white"/>
</svg>
