<svg width="22" height="23" viewBox="0 0 22 23" fill="none" xmlns="http://www.w3.org/2000/svg">
<path d="M10.9999 22.9998C17.075 22.9998 21.9998 17.8511 21.9998 11.4999C21.9998 5.14868 17.075 0 10.9999 0C4.92482 0 0 5.14868 0 11.4999C0 17.8511 4.92482 22.9998 10.9999 22.9998Z" fill="#0B394E"/>
<path d="M17.7375 8.2646C17.2661 8.48313 16.7591 8.63093 16.2273 8.69694C16.7702 8.35685 17.1869 7.81874 17.3836 7.17648C16.8755 7.49156 16.3126 7.72013 15.7139 7.84334C15.2343 7.30932 14.551 6.97559 13.7943 6.97559C12.3425 6.97559 11.165 8.20659 11.165 9.72438C11.165 9.93984 11.1883 10.1495 11.2334 10.3509C9.04826 10.2363 7.11076 9.14199 5.81386 7.47844C5.58758 7.88434 5.45777 8.35685 5.45777 8.86053C5.45777 9.81397 5.92229 10.6557 6.62741 11.1485C6.19661 11.1344 5.79092 11.0107 5.43659 10.8043C5.4364 10.816 5.4364 10.8277 5.4364 10.8392C5.4364 12.171 6.34309 13.2819 7.54567 13.5342C7.32527 13.5974 7.09252 13.6308 6.8531 13.6308C6.68329 13.6308 6.51878 13.6138 6.35838 13.5818C6.6929 14.6736 7.66371 15.4684 8.81453 15.4907C7.9145 16.2281 6.78094 16.6674 5.54875 16.6674C5.33698 16.6674 5.12717 16.6545 4.92188 16.6289C6.08485 17.4091 7.46724 17.864 8.95198 17.864C13.7882 17.864 16.433 13.6755 16.433 10.0427C16.433 9.92364 16.4304 9.80495 16.4253 9.68728C16.9395 9.29984 17.3851 8.81584 17.7375 8.2646Z" fill="#F1F2F2"/>
</svg>
