<svg width="7" height="10" viewBox="0 0 7 10" fill="none" xmlns="http://www.w3.org/2000/svg">
<path d="M0.244543 8.8336L4.93707 5L0.244543 1.1664C0.0879147 1.0379 0 0.864089 0 0.682911C0 0.501733 0.0879147 0.327917 0.244543 0.199424C0.402106 0.0716942 0.615248 0 0.837416 0C1.05958 0 1.27273 0.0716942 1.43029 0.199424L6.77876 4.56109C6.9205 4.67793 7 4.83565 7 5C7 5.16435 6.9205 5.32207 6.77876 5.43891L1.43029 9.80058C1.27273 9.92831 1.05958 10 0.837416 10C0.615248 10 0.402106 9.92831 0.244543 9.80058C0.0879147 9.67208 0 9.49827 0 9.31709C0 9.13591 0.0879147 8.9621 0.244543 8.8336Z" fill="white"/>
</svg>
