<svg width="17" height="17" viewBox="0 0 17 17" fill="none" xmlns="http://www.w3.org/2000/svg">
<g clip-path="url(#clip0_317_1266)">
<path d="M15.584 2.83333H11.334V2.125C11.334 1.56141 11.1101 1.02091 10.7116 0.622398C10.3131 0.223883 9.77257 0 9.20898 0L7.79232 0C7.22873 0 6.68823 0.223883 6.28972 0.622398C5.8912 1.02091 5.66732 1.56141 5.66732 2.125V2.83333H1.41732C1.22946 2.83333 1.04929 2.90796 0.91645 3.0408C0.783612 3.17364 0.708984 3.3538 0.708984 3.54167C0.708984 3.72953 0.783612 3.9097 0.91645 4.04253C1.04929 4.17537 1.22946 4.25 1.41732 4.25H2.83398V14.1667C2.83398 14.7303 3.05787 15.2708 3.45638 15.6693C3.8549 16.0678 4.3954 16.2917 4.95898 16.2917H12.0423C12.6059 16.2917 13.1464 16.0678 13.5449 15.6693C13.9434 15.2708 14.1673 14.7303 14.1673 14.1667V4.25H15.584C15.7718 4.25 15.952 4.17537 16.0849 4.04253C16.2177 3.9097 16.2923 3.72953 16.2923 3.54167C16.2923 3.3538 16.2177 3.17364 16.0849 3.0408C15.952 2.90796 15.7718 2.83333 15.584 2.83333ZM7.08398 2.125C7.08398 1.93714 7.15861 1.75697 7.29145 1.62413C7.42429 1.49129 7.60446 1.41667 7.79232 1.41667H9.20898C9.39685 1.41667 9.57701 1.49129 9.70985 1.62413C9.84269 1.75697 9.91732 1.93714 9.91732 2.125V2.83333H7.08398V2.125ZM6.37565 12.75C6.37565 12.9379 6.30102 13.118 6.16819 13.2509C6.03535 13.3837 5.85518 13.4583 5.66732 13.4583C5.47946 13.4583 5.29929 13.3837 5.16645 13.2509C5.03361 13.118 4.95898 12.9379 4.95898 12.75V7.08333C4.95898 6.89547 5.03361 6.7153 5.16645 6.58247C5.29929 6.44963 5.47946 6.375 5.66732 6.375C5.85518 6.375 6.03535 6.44963 6.16819 6.58247C6.30102 6.7153 6.37565 6.89547 6.37565 7.08333V12.75ZM9.20898 12.75C9.20898 12.9379 9.13436 13.118 9.00152 13.2509C8.86868 13.3837 8.68851 13.4583 8.50065 13.4583C8.31279 13.4583 8.13262 13.3837 7.99978 13.2509C7.86695 13.118 7.79232 12.9379 7.79232 12.75V7.08333C7.79232 6.89547 7.86695 6.7153 7.99978 6.58247C8.13262 6.44963 8.31279 6.375 8.50065 6.375C8.68851 6.375 8.86868 6.44963 9.00152 6.58247C9.13436 6.7153 9.20898 6.89547 9.20898 7.08333V12.75ZM12.0423 12.75C12.0423 12.9379 11.9677 13.118 11.8349 13.2509C11.702 13.3837 11.5218 13.4583 11.334 13.4583C11.1461 13.4583 10.966 13.3837 10.8331 13.2509C10.7003 13.118 10.6257 12.9379 10.6257 12.75V7.08333C10.6257 6.89547 10.7003 6.7153 10.8331 6.58247C10.966 6.44963 11.1461 6.375 11.334 6.375C11.5218 6.375 11.702 6.44963 11.8349 6.58247C11.9677 6.7153 12.0423 6.89547 12.0423 7.08333V12.75Z" fill="white"/>
</g>
<defs>
<clipPath id="clip0_317_1266">
<rect width="17" height="17" fill="white"/>
</clipPath>
</defs>
</svg>
